<svg width="90" height="66" viewBox="0 0 90 66" fill="none" xmlns="http://www.w3.org/2000/svg">
<path d="M0 14.5212V12.5285C0 12.3845 0.0737158 12.2466 0.191196 12.1634C20.0228 -1.87809 30.0071 -1.87099 42.1559 2.77792C45.3287 3.99201 48.6076 4.94381 51.9667 5.45083C68.9449 8.01358 77.9275 11.625 89.822 20.6088C89.933 20.6926 90 20.8252 90 20.9643V22.7434C76.3789 12.314 66.8786 9.45795 50.3717 7.5644C48.0566 7.29883 45.766 6.84626 43.5041 6.28585C27.3621 2.28649 16.0454 4.11241 0 14.5212Z" fill="black"/>
<path d="M0 19.7091V17.7164C0 17.5724 0.0737158 17.4345 0.191196 17.3513C20.0228 3.30984 30.0071 3.31694 42.1559 7.96584C45.3287 9.17994 48.6076 10.1317 51.9667 10.6388C68.9449 13.2015 77.9275 16.8129 89.822 25.7967C89.933 25.8805 90 26.0131 90 26.1522V27.9314C76.3789 17.5019 66.8786 14.6459 50.3717 12.7523C48.0566 12.4868 45.766 12.0342 43.5041 11.4738C27.3621 7.47441 16.0454 9.30034 0 19.7091Z" fill="black"/>
<path d="M0 25.1192V23.1265C0 22.9825 0.0737158 22.8446 0.191196 22.7614C20.0228 8.71994 30.0071 8.72703 42.1559 13.3759C45.3287 14.59 48.6076 15.5418 51.9667 16.0489C68.9449 18.6116 77.9275 22.223 89.822 31.2068C89.933 31.2906 90 31.4232 90 31.5623V33.3415C76.3789 22.912 66.8786 20.056 50.3717 18.1624C48.0566 17.8968 45.766 17.4443 43.5041 16.8839C27.3621 12.8845 16.0454 14.7104 0 25.1192Z" fill="black"/>
<path d="M0 30.3758V28.383C0 28.2391 0.0737158 28.1011 0.191196 28.018C20.0228 13.9765 30.0071 13.9836 42.1559 18.6325C45.3287 19.8466 48.6076 20.7984 51.9667 21.3054C68.9449 23.8681 77.9275 27.4795 89.822 36.4633C89.933 36.5471 90 36.6797 90 36.8188V38.598C76.3789 28.1686 66.8786 25.3125 50.3717 23.419C48.0566 23.1534 45.766 22.7008 43.5041 22.1404C27.3621 18.141 16.0454 19.967 0 30.3758Z" fill="black"/>
<path d="M0 35.7091V33.7163C0 33.5724 0.0737158 33.4345 0.191196 33.3513C20.0228 19.3098 30.0071 19.3169 42.1559 23.9658C45.3287 25.1799 48.6076 26.1317 51.9667 26.6387C68.9449 29.2014 77.9275 32.8128 89.822 41.7966C89.933 41.8805 90 42.013 90 42.1521V43.9313C76.3789 33.5019 66.8786 30.6458 50.3717 28.7523C48.0566 28.4867 45.766 28.0341 43.5041 27.4737C27.3621 23.4744 16.0454 25.3003 0 35.7091Z" fill="black"/>
<path d="M0 41.1192V39.1265C0 38.9825 0.0737158 38.8446 0.191196 38.7614C20.0228 24.7199 30.0071 24.727 42.1559 29.3759C45.3287 30.59 48.6076 31.5418 51.9667 32.0489C68.9449 34.6116 77.9275 38.223 89.822 47.2068C89.933 47.2906 90 47.4232 90 47.5623V49.3415C76.3789 38.912 66.8786 36.056 50.3717 34.1624C48.0566 33.8968 45.766 33.4443 43.5041 32.8839C27.3621 28.8845 16.0454 30.7104 0 41.1192Z" fill="black"/>
<path d="M0 46.3758V44.383C0 44.2391 0.0737158 44.1011 0.191196 44.018C20.0228 29.9765 30.0071 29.9836 42.1559 34.6325C45.3287 35.8466 48.6076 36.7984 51.9667 37.3054C68.9449 39.8681 77.9275 43.4795 89.822 52.4633C89.933 52.5471 90 52.6797 90 52.8188V54.598C76.3789 44.1686 66.8786 41.3125 50.3717 39.419C48.0566 39.1534 45.766 38.7008 43.5041 38.1404C27.3621 34.141 16.0454 35.967 0 46.3758Z" fill="black"/>
<path d="M0 51.7091V49.7163C0 49.5724 0.0737158 49.4345 0.191196 49.3513C20.0228 35.3098 30.0071 35.3169 42.1559 39.9658C45.3287 41.1799 48.6076 42.1317 51.9667 42.6387C68.9449 45.2014 77.9275 48.8128 89.822 57.7966C89.933 57.8805 90 58.013 90 58.1521V59.9313C76.3789 49.5019 66.8786 46.6458 50.3717 44.7523C48.0566 44.4867 45.766 44.0341 43.5041 43.4737C27.3621 39.4744 16.0454 41.3003 0 51.7091Z" fill="black"/>
<path d="M0 65.3415V55.1265C0 54.9825 0.0737158 54.8446 0.191196 54.7614C20.0228 40.7199 30.0071 40.727 42.1559 45.3759C45.3287 46.59 48.6076 47.5418 51.9667 48.0489C68.9449 50.6116 77.9275 54.223 89.822 63.2068C89.933 63.2906 90 63.4232 90 63.5623V65.3415H47.3333H0Z" fill="black"/>
<rect y="13" width="1" height="52" fill="black"/>
<rect x="89" y="21" width="1" height="44" fill="black"/>
</svg>
