<svg width="90" height="66" viewBox="0 0 90 66" fill="none" xmlns="http://www.w3.org/2000/svg">
<path d="M0 14.9953V13.0026C0 12.8586 0.0737158 12.7207 0.191196 12.6375C20.0228 -1.40397 30.0071 -1.39687 42.1559 3.25204C45.3287 4.46613 48.6076 5.41793 51.9667 5.92495C68.9449 8.4877 77.9275 12.0991 89.822 21.0829C89.933 21.1667 90 21.2993 90 21.4384V23.2176C76.3789 12.7881 66.8786 9.93207 50.3717 8.03852C48.0566 7.77295 45.766 7.32039 43.5041 6.75997C27.3621 2.76061 16.0454 4.58653 0 14.9953Z" fill="white"/>
<path d="M0 20.1833V18.1906C0 18.0466 0.0737158 17.9087 0.191196 17.8255C20.0228 3.78402 30.0071 3.79112 42.1559 8.44003C45.3287 9.65412 48.6076 10.6059 51.9667 11.1129C68.9449 13.6757 77.9275 17.2871 89.822 26.2709C89.933 26.3547 90 26.4873 90 26.6264V28.4056C76.3789 17.9761 66.8786 15.1201 50.3717 13.2265C48.0566 12.9609 45.766 12.5084 43.5041 11.948C27.3621 7.9486 16.0454 9.77452 0 20.1833Z" fill="white"/>
<path d="M0 25.5935V23.6007C0 23.4568 0.0737158 23.3188 0.191196 23.2357C20.0228 9.19418 30.0071 9.20128 42.1559 13.8502C45.3287 15.0643 48.6076 16.0161 51.9667 16.5231C68.9449 19.0858 77.9275 22.6972 89.822 31.681C89.933 31.7649 90 31.8974 90 32.0365V33.8157C76.3789 23.3863 66.8786 20.5302 50.3717 18.6367C48.0566 18.3711 45.766 17.9185 43.5041 17.3581C27.3621 13.3588 16.0454 15.1847 0 25.5935Z" fill="white"/>
<path d="M0 30.8498V28.8571C0 28.7131 0.0737158 28.5752 0.191196 28.492C20.0228 14.4505 30.0071 14.4576 42.1559 19.1065C45.3287 20.3206 48.6076 21.2724 51.9667 21.7794C68.9449 24.3422 77.9275 27.9536 89.822 36.9374C89.933 37.0212 90 37.1538 90 37.2929V39.0721C76.3789 28.6426 66.8786 25.7866 50.3717 23.893C48.0566 23.6274 45.766 23.1749 43.5041 22.6145C27.3621 18.6151 16.0454 20.441 0 30.8498Z" fill="white"/>
<path d="M0 36.1833V34.1906C0 34.0466 0.0737158 33.9087 0.191196 33.8255C20.0228 19.784 30.0071 19.7911 42.1559 24.44C45.3287 25.6541 48.6076 26.6059 51.9667 27.1129C68.9449 29.6757 77.9275 33.2871 89.822 42.2709C89.933 42.3547 90 42.4873 90 42.6264V44.4056C76.3789 33.9761 66.8786 31.1201 50.3717 29.2265C48.0566 28.9609 45.766 28.5084 43.5041 27.948C27.3621 23.9486 16.0454 25.7745 0 36.1833Z" fill="white"/>
<path d="M0 41.5935V39.6007C0 39.4568 0.0737158 39.3188 0.191196 39.2357C20.0228 25.1942 30.0071 25.2013 42.1559 29.8502C45.3287 31.0643 48.6076 32.0161 51.9667 32.5231C68.9449 35.0858 77.9275 38.6972 89.822 47.681C89.933 47.7649 90 47.8974 90 48.0365V49.8157C76.3789 39.3863 66.8786 36.5302 50.3717 34.6367C48.0566 34.3711 45.766 33.9185 43.5041 33.3581C27.3621 29.3588 16.0454 31.1847 0 41.5935Z" fill="white"/>
<path d="M0 46.8498V44.8571C0 44.7131 0.0737158 44.5752 0.191196 44.492C20.0228 30.4505 30.0071 30.4576 42.1559 35.1065C45.3287 36.3206 48.6076 37.2724 51.9667 37.7794C68.9449 40.3422 77.9275 43.9536 89.822 52.9374C89.933 53.0212 90 53.1538 90 53.2929V55.0721C76.3789 44.6426 66.8786 41.7866 50.3717 39.893C48.0566 39.6274 45.766 39.1749 43.5041 38.6145C27.3621 34.6151 16.0454 36.441 0 46.8498Z" fill="white"/>
<path d="M0 52.1833V50.1906C0 50.0466 0.0737158 49.9087 0.191196 49.8255C20.0228 35.784 30.0071 35.7911 42.1559 40.44C45.3287 41.6541 48.6076 42.6059 51.9667 43.1129C68.9449 45.6757 77.9275 49.2871 89.822 58.2709C89.933 58.3547 90 58.4873 90 58.6264V60.4056C76.3789 49.9761 66.8786 47.1201 50.3717 45.2265C48.0566 44.9609 45.766 44.5084 43.5041 43.948C27.3621 39.9486 16.0454 41.7745 0 52.1833Z" fill="white"/>
<path d="M0 65.8157V55.6007C0 55.4568 0.0737158 55.3188 0.191196 55.2357C20.0228 41.1942 30.0071 41.2013 42.1559 45.8502C45.3287 47.0643 48.6076 48.0161 51.9667 48.5231C68.9449 51.0858 77.9275 54.6972 89.822 63.681C89.933 63.7649 90 63.8974 90 64.0365V65.8157H47.3333H0Z" fill="white"/>
<rect y="13.4741" width="1" height="52" fill="white"/>
<rect x="89" y="21.4741" width="1" height="44" fill="white"/>
</svg>
